<svg width="14" height="11" viewBox="0 0 19 11" fill="none" xmlns="http://www.w3.org/2000/svg">
<path d="M0.375195 2.15001L8.7752 10.575C8.8752 10.675 8.98353 10.7457 9.10019 10.787C9.21686 10.829 9.34186 10.85 9.47519 10.85C9.60853 10.85 9.73353 10.829 9.85019 10.787C9.96686 10.7457 10.0752 10.675 10.1752 10.575L18.6002 2.15001C18.8335 1.91667 18.9502 1.62501 18.9502 1.27501C18.9502 0.925006 18.8252 0.625007 18.5752 0.375007C18.3252 0.125007 18.0335 6.66479e-06 17.7002 6.66081e-06C17.3669 6.65684e-06 17.0752 0.125007 16.8252 0.375007L9.47519 7.72501L2.12519 0.375006C1.89186 0.141673 1.60453 0.0250061 1.2632 0.0250061C0.921196 0.0250061 0.625195 0.150006 0.375195 0.400006C0.125195 0.650006 0.000194668 0.941673 0.000194664 1.27501C0.00019466 1.60834 0.125195 1.90001 0.375195 2.15001Z" fill="#101010"/>
</svg>
