<svg width="8" height="13" viewBox="0 0 8 13" fill="none" xmlns="http://www.w3.org/2000/svg">
<path d="M7.4311 7.96621C7.7197 7.69073 7.76092 7.29718 7.51355 6.90364C7.30741 6.5888 6.93636 6.43139 6.52407 6.51009C6.35916 6.54945 6.19424 6.62816 6.02932 6.74622C4.75124 7.57267 3.01964 7.53331 1.74155 6.70687C1.6591 6.66751 1.57664 6.62816 1.49418 6.5888C1.04067 6.39203 0.587158 6.47074 0.339786 6.86429C0.0511864 7.25783 0.09241 7.69073 0.463467 8.04492C0.545924 8.12363 0.628381 8.16299 0.66961 8.2417L0.710841 8.28105C1.28804 8.71395 1.98893 8.98943 2.89596 9.1075L2.35998 9.61911C1.90647 10.052 1.41173 10.5243 0.958215 10.9572C0.834529 11.0752 0.66961 11.272 0.66961 11.5475C0.66961 11.9017 0.875756 12.2559 1.24681 12.4133C1.3705 12.492 1.49418 12.492 1.61787 12.492C1.82401 12.492 2.07138 12.4133 2.2363 12.2165C2.85472 11.6262 3.34947 11.1539 3.84421 10.6817C3.88544 10.6423 3.88544 10.6423 3.88544 10.6423C3.88544 10.6423 3.92667 10.6423 3.92667 10.6817C4.2565 11.0359 4.62755 11.3507 4.95738 11.7049C5.1223 11.8623 5.28721 12.0197 5.45212 12.1771C5.65827 12.3739 5.82318 12.4526 6.07055 12.4526C6.44161 12.492 6.8539 12.2559 7.01881 11.9017C7.18372 11.5868 7.10127 11.1933 6.81267 10.9572C6.40038 10.5636 5.98809 10.1307 5.53458 9.73716L4.8337 9.06814C5.20475 9.02878 5.61704 8.95008 5.9881 8.79266C6.60653 8.59589 7.06004 8.3204 7.4311 7.96621Z" fill="white"/>
<path d="M3.88544 6.86428C5.65827 6.86428 7.10127 5.52623 7.10127 3.83398C7.10127 3.00754 6.77144 2.22045 6.15301 1.63013C5.53458 1.03981 4.75124 0.724976 3.92667 0.724976C2.15384 0.724976 0.752069 2.10238 0.71084 3.75527C0.71084 4.58172 1.04067 5.32945 1.6591 5.91977C2.2363 6.54944 3.01964 6.86428 3.88544 6.86428ZM2.97841 2.92883C3.22578 2.6927 3.55561 2.57464 3.88544 2.57464C4.62755 2.57464 5.16353 3.1256 5.16353 3.79463C5.16353 4.50301 4.58632 5.01462 3.88544 5.01462C3.14332 5.01462 2.60736 4.46366 2.60736 3.79463C2.60736 3.47979 2.73104 3.16496 2.97841 2.92883Z" fill="white"/>
<path d="M7.4311 7.96621C7.7197 7.69073 7.76092 7.29718 7.51355 6.90364C7.30741 6.5888 6.93636 6.43139 6.52407 6.51009C6.35916 6.54945 6.19424 6.62816 6.02932 6.74622C4.75124 7.57267 3.01964 7.53331 1.74155 6.70687C1.6591 6.66751 1.57664 6.62816 1.49418 6.5888C1.04067 6.39203 0.587158 6.47074 0.339786 6.86429C0.0511864 7.25783 0.09241 7.69073 0.463467 8.04492C0.545924 8.12363 0.628381 8.16299 0.66961 8.2417L0.710841 8.28105C1.28804 8.71395 1.98893 8.98943 2.89596 9.1075L2.35998 9.61911C1.90647 10.052 1.41173 10.5243 0.958215 10.9572C0.834529 11.0752 0.66961 11.272 0.66961 11.5475C0.66961 11.9017 0.875756 12.2559 1.24681 12.4133C1.3705 12.492 1.49418 12.492 1.61787 12.492C1.82401 12.492 2.07138 12.4133 2.2363 12.2165C2.85472 11.6262 3.34947 11.1539 3.84421 10.6817C3.88544 10.6423 3.88544 10.6423 3.88544 10.6423C3.88544 10.6423 3.92667 10.6423 3.92667 10.6817C4.2565 11.0359 4.62755 11.3507 4.95738 11.7049C5.1223 11.8623 5.28721 12.0197 5.45212 12.1771C5.65827 12.3739 5.82318 12.4526 6.07055 12.4526C6.44161 12.492 6.8539 12.2559 7.01881 11.9017C7.18372 11.5868 7.10127 11.1933 6.81267 10.9572C6.40038 10.5636 5.98809 10.1307 5.53458 9.73716L4.8337 9.06814C5.20475 9.02878 5.61704 8.95008 5.9881 8.79266C6.60653 8.59589 7.06004 8.3204 7.4311 7.96621Z" fill="white"/>
</svg>
