<svg width="12" height="8" viewBox="0 0 12 8" fill="none" xmlns="http://www.w3.org/2000/svg">
<path d="M6.51543 7.44998C2.56924 7.44998 0.318395 4.69097 0.224609 0.0999756H2.20131C2.26624 3.46964 3.72352 4.89697 4.8778 5.19127V0.0999756H6.73907V3.00613C7.87892 2.88106 9.07648 1.55673 9.48048 0.0999756H11.3418C11.1895 0.855491 10.8861 1.57084 10.4504 2.20129C10.0146 2.83173 9.45607 3.36371 8.80956 3.76394C9.53122 4.12964 10.1686 4.64726 10.6797 5.28264C11.1908 5.91802 11.564 6.65671 11.7746 7.44998H9.72577C9.5367 6.76097 9.15244 6.1442 8.62114 5.67696C8.08984 5.20972 7.43513 4.91279 6.73907 4.8234V7.44998H6.51543Z" fill="white"/>
</svg>
